{
	"patcher" : 	{
		"fileversion" : 1,
		"appversion" : 		{
			"major" : 8,
			"minor" : 0,
			"revision" : 0,
			"architecture" : "x64",
			"modernui" : 1
		}
,
		"classnamespace" : "dsp.gen",
		"rect" : [ 530.0, 79.0, 716.0, 631.0 ],
		"bglocked" : 0,
		"openinpresentation" : 0,
		"default_fontsize" : 12.0,
		"default_fontface" : 0,
		"default_fontname" : "Arial",
		"gridonopen" : 1,
		"gridsize" : [ 15.0, 15.0 ],
		"gridsnaponopen" : 1,
		"objectsnaponopen" : 1,
		"statusbarvisible" : 2,
		"toolbarvisible" : 1,
		"lefttoolbarpinned" : 0,
		"toptoolbarpinned" : 0,
		"righttoolbarpinned" : 0,
		"bottomtoolbarpinned" : 0,
		"toolbars_unpinned_last_save" : 0,
		"tallnewobj" : 0,
		"boxanimatetime" : 200,
		"enablehscroll" : 1,
		"enablevscroll" : 1,
		"devicewidth" : 0.0,
		"description" : "",
		"digest" : "",
		"tags" : "",
		"style" : "",
		"subpatcher_template" : "",
		"boxes" : [ 			{
				"box" : 				{
					"id" : "obj-5",
					"maxclass" : "newobj",
					"numinlets" : 1,
					"numoutlets" : 0,
					"patching_rect" : [ 15.5, 547.0, 35.0, 22.0 ],
					"text" : "out 1"
				}

			}
, 			{
				"box" : 				{
					"code" : "\r\n\r\nBuffer upsweep(\"ESS\");\r\nBuffer dnsweep(\"Inv\");\r\nParam sr(48000);\r\nParam type(0); //0=exponential 1=linear\r\n// in1 = startfreq in2 =endfreq in3 duration in4 sr\r\nsf = in1;\r\nef = in2;\r\ndu = in3;\r\ndusample = du*sr;\r\nklinear = (ef-sf)/du;\r\nlf =  ln(ef/sf);\r\nalpha = (twopi * sf * du) / lf;\r\ncnt=0; \r\n\r\nif(type){\r\nfor(i = 0;i<du;i+=(1/sr)){\r\n\r\n\tj = (du-i-1/sr);\r\n\ttu=i;\r\n\tju=j;\r\n\tenvdb = (i/du)*(-6*log2(lf/sf));\r\n\tenv = pow(10,envdb/10);\r\n\tk = exp(tu*lf/du);\r\n\tk2 = exp(ju*lf/du);\r\n\tp = alpha*(exp(tu*lf/du-1));\r\n\trp = alpha*(exp(ju*lf/du-1));\r\n\t//sin((2*np.pi*f1*T/R)*(np.exp(t*R/T)-1));\r\n\tsample = sin(p);\r\n\trvsample=sin(rp)*env*2*2;\r\n\tpoke(upsweep,sample,cnt);\r\n\tpoke(dnsweep,rvsample,cnt);\r\n\tcnt+=1;\r\n}\r\n}else{\r\n\tfor(i = 0;i<du;i+=(1/sr)){\r\n\tsample= sin(twopi*(sf*i+klinear*i*i/2));\r\n\tpoke(upsweep,sample,cnt);\r\n\tpoke(dnsweep,sample,dusample-cnt-1);\r\n\r\n\tcnt+=1;\r\n}\r\n}\r\n\r\nout1 = sr;",
					"fontface" : 0,
					"fontname" : "Menlo",
					"fontsize" : 12.0,
					"id" : "obj-4",
					"maxclass" : "codebox",
					"numinlets" : 3,
					"numoutlets" : 1,
					"outlettype" : [ "" ],
					"patching_rect" : [ 15.5, 135.0, 897.0, 377.0 ]
				}

			}
, 			{
				"box" : 				{
					"id" : "obj-18",
					"maxclass" : "comment",
					"numinlets" : 1,
					"numoutlets" : 0,
					"patching_rect" : [ 392.0, 41.0, 60.0, 20.0 ],
					"text" : "duration"
				}

			}
, 			{
				"box" : 				{
					"id" : "obj-19",
					"maxclass" : "newobj",
					"numinlets" : 0,
					"numoutlets" : 1,
					"outlettype" : [ "" ],
					"patching_rect" : [ 360.0, 41.0, 28.0, 22.0 ],
					"text" : "in 3"
				}

			}
, 			{
				"box" : 				{
					"id" : "obj-16",
					"maxclass" : "comment",
					"numinlets" : 1,
					"numoutlets" : 0,
					"patching_rect" : [ 228.5, 41.0, 60.0, 20.0 ],
					"text" : "end freq"
				}

			}
, 			{
				"box" : 				{
					"id" : "obj-17",
					"maxclass" : "newobj",
					"numinlets" : 0,
					"numoutlets" : 1,
					"outlettype" : [ "" ],
					"patching_rect" : [ 196.5, 41.0, 28.0, 22.0 ],
					"text" : "in 2"
				}

			}
, 			{
				"box" : 				{
					"id" : "obj-15",
					"maxclass" : "comment",
					"numinlets" : 1,
					"numoutlets" : 0,
					"patching_rect" : [ 47.5, 41.0, 60.0, 20.0 ],
					"text" : "start freq"
				}

			}
, 			{
				"box" : 				{
					"id" : "obj-2",
					"maxclass" : "newobj",
					"numinlets" : 0,
					"numoutlets" : 1,
					"outlettype" : [ "" ],
					"patching_rect" : [ 15.5, 41.0, 28.0, 22.0 ],
					"text" : "in 1"
				}

			}
 ],
		"lines" : [ 			{
				"patchline" : 				{
					"destination" : [ "obj-4", 1 ],
					"source" : [ "obj-17", 0 ]
				}

			}
, 			{
				"patchline" : 				{
					"destination" : [ "obj-4", 2 ],
					"source" : [ "obj-19", 0 ]
				}

			}
, 			{
				"patchline" : 				{
					"destination" : [ "obj-4", 0 ],
					"source" : [ "obj-2", 0 ]
				}

			}
, 			{
				"patchline" : 				{
					"destination" : [ "obj-5", 0 ],
					"source" : [ "obj-4", 0 ]
				}

			}
 ],
		"editing_bgcolor" : [ 0.9, 0.9, 0.9, 1.0 ]
	}

}
